<svg xmlns="http://www.w3.org/2000/svg" version="1.1" xmlns:xlink="http://www.w3.org/1999/xlink" xmlns:svgjs="http://svgjs.dev/svgjs" width="1000" height="1000"><g clip-path="url(#SvgjsClipPath1010)"><rect width="1000" height="1000" fill="#ffffff"></rect><g transform="matrix(29.166666666666668,0,0,29.166666666666668,150,150)"><svg xmlns="http://www.w3.org/2000/svg" version="1.1" xmlns:xlink="http://www.w3.org/1999/xlink" xmlns:svgjs="http://svgjs.dev/svgjs" width="24" height="24"><svg class="w-6 h-6 text-gray-800 dark:text-white" aria-hidden="true" xmlns="http://www.w3.org/2000/svg" width="24" height="24" fill="currentColor" viewBox="0 0 24 24">
  <path fill-rule="evenodd" d="M6 6a2 2 0 0 0-2 2v3a2 2 0 0 0 2 2h3a3 3 0 0 1-3 3H5a1 1 0 1 0 0 2h1a5 5 0 0 0 5-5V8a2 2 0 0 0-2-2H6Zm9 0a2 2 0 0 0-2 2v3a2 2 0 0 0 2 2h3a3 3 0 0 1-3 3h-1a1 1 0 1 0 0 2h1a5 5 0 0 0 5-5V8a2 2 0 0 0-2-2h-3Z" clip-rule="evenodd"></path>
</svg></svg></g></g><defs><clipPath id="SvgjsClipPath1010"><rect width="1000" height="1000" x="0" y="0" rx="350" ry="350"></rect></clipPath></defs></svg>